<svg width="393" height="158" viewBox="0 0 393 158" fill="none" xmlns="http://www.w3.org/2000/svg">
<path fill-rule="evenodd" clip-rule="evenodd" d="M80.5173 -6.91463e-06C36.0547 -6.91463e-06 0 36.048 0 80.5173C0 116.092 23.0707 146.273 55.0627 156.92C59.0867 157.665 60.564 155.173 60.564 153.047C60.564 151.127 60.4894 144.784 60.4547 138.056C38.0547 142.927 33.328 128.556 33.328 128.556C29.6653 119.249 24.388 116.775 24.388 116.775C17.0827 111.777 24.9387 111.88 24.9387 111.88C33.024 112.447 37.2813 120.179 37.2813 120.179C44.4627 132.487 56.1173 128.928 60.712 126.871C61.4347 121.667 63.5213 118.113 65.824 116.104C47.94 114.068 29.14 107.164 29.14 76.312C29.14 67.5213 32.2853 60.3387 37.436 54.7C36.6 52.6707 33.844 44.4826 38.216 33.392C38.216 33.392 44.9773 31.228 60.364 41.6453C66.7867 39.8613 73.6747 38.9667 80.5173 38.936C87.36 38.9667 94.2533 39.8613 100.688 41.6453C116.056 31.228 122.808 33.392 122.808 33.392C127.191 44.4826 124.433 52.6707 123.597 54.7C128.76 60.3387 131.884 67.5213 131.884 76.312C131.884 107.237 113.048 114.047 95.1187 116.04C98.0067 118.539 100.58 123.439 100.58 130.951C100.58 141.724 100.487 150.395 100.487 153.047C100.487 155.189 101.936 157.7 106.017 156.909C137.992 146.251 161.033 116.08 161.033 80.5173C161.033 36.048 124.984 -6.91463e-06 80.5173 -6.91463e-06" fill="#2770F3"/>
<path d="M30.496 115.605C30.3186 116.007 29.6893 116.125 29.116 115.851C28.532 115.588 28.204 115.043 28.3933 114.641C28.5666 114.231 29.1973 114.116 29.78 114.389C30.3653 114.653 30.6986 115.204 30.496 115.605Z" fill="#2770F3"/>
<path d="M33.7573 119.243C33.3733 119.599 32.6226 119.433 32.1133 118.871C31.5866 118.309 31.488 117.559 31.8773 117.197C32.2733 116.843 33.0013 117.009 33.5293 117.569C34.0559 118.137 34.1586 118.883 33.7573 119.243Z" fill="#2770F3"/>
<path d="M36.932 123.88C36.4387 124.223 35.632 123.901 35.1333 123.185C34.64 122.469 34.64 121.611 35.144 121.267C35.644 120.923 36.4387 121.233 36.944 121.943C37.436 122.671 37.436 123.529 36.932 123.88" fill="#2770F3"/>
<path d="M41.2813 128.36C40.84 128.847 39.9 128.716 39.212 128.052C38.508 127.403 38.312 126.481 38.7547 125.995C39.2013 125.507 40.1466 125.644 40.84 126.303C41.5386 126.951 41.752 127.879 41.2813 128.36Z" fill="#2770F3"/>
<path d="M47.2811 130.961C47.0864 131.592 46.1811 131.879 45.2691 131.611C44.3584 131.335 43.7624 130.596 43.9464 129.959C44.1358 129.324 45.0451 129.025 45.9638 129.312C46.8731 129.587 47.4704 130.32 47.2811 130.961Z" fill="#2770F3"/>
<path d="M53.8706 131.444C53.8933 132.108 53.12 132.659 52.1626 132.671C51.2 132.692 50.4213 132.155 50.4106 131.501C50.4106 130.831 51.1666 130.285 52.1293 130.269C53.0866 130.251 53.8706 130.784 53.8706 131.444Z" fill="#2770F3"/>
<path d="M197 104.307C199.207 104.624 201.072 104.782 202.595 104.782C205.117 104.782 206.825 104.201 207.718 103.04C208.611 101.931 209.058 99.8977 209.058 96.9406V43.7129H221.352V96.7822C221.352 103.066 220.117 107.66 217.648 110.564C215.178 113.521 210.975 115 205.038 115C202.674 115 199.995 114.762 197 114.287V104.307Z" fill="#083991"/>
<path d="M258.38 100.822C252.811 100.822 247.951 99.6601 243.801 97.3367C239.703 94.9604 236.524 91.5809 234.265 87.198C232.058 82.8152 230.955 77.6931 230.955 71.8317C230.955 65.9703 232.058 60.8746 234.265 56.5446C236.524 52.2145 239.703 48.8878 243.801 46.5644C247.951 44.1881 252.811 43 258.38 43C263.949 43 268.783 44.1881 272.881 46.5644C276.979 48.8878 280.131 52.2145 282.338 56.5446C284.544 60.8746 285.647 65.9703 285.647 71.8317C285.647 77.6931 284.544 82.8152 282.338 87.198C280.131 91.5809 276.979 94.9604 272.881 97.3367C268.783 99.6601 263.949 100.822 258.38 100.822ZM258.38 91.1584C263.108 91.1584 266.786 89.4951 269.413 86.1683C272.093 82.8416 273.432 78.0627 273.432 71.8317C273.432 65.6007 272.093 60.8482 269.413 57.5743C266.786 54.3003 263.108 52.6633 258.38 52.6633C253.652 52.6633 249.948 54.3003 247.268 57.5743C244.641 60.8482 243.328 65.6007 243.328 71.8317C243.328 78.1155 244.641 82.9208 247.268 86.2475C249.948 89.5215 253.652 91.1584 258.38 91.1584Z" fill="#083991"/>
<path d="M331.271 70.9604C334.528 71.9109 337.05 73.5742 338.836 75.9505C340.623 78.3267 341.516 81.2311 341.516 84.6634C341.516 89.4159 339.756 93.1914 336.236 95.9901C332.716 98.736 327.935 100.109 321.893 100.109H295.256V43.7129H321.105C326.936 43.7129 331.534 45.033 334.896 47.6733C338.311 50.2607 340.019 53.8251 340.019 58.3664C340.019 61.3235 339.23 63.9109 337.654 66.1287C336.131 68.3465 334.003 69.9571 331.271 70.9604ZM307.235 66.6832H319.056C322.208 66.6832 324.546 66.1551 326.07 65.099C327.646 63.9901 328.434 62.3003 328.434 60.0297C328.434 57.7063 327.646 55.9901 326.07 54.8812C324.546 53.7723 322.208 53.2178 319.056 53.2178H307.235V66.6832ZM320.474 90.604C323.784 90.604 326.175 90.0495 327.646 88.9406C329.169 87.7789 329.931 85.9571 329.931 83.4753C329.931 80.9406 329.169 79.0924 327.646 77.9307C326.175 76.769 323.784 76.1881 320.474 76.1881H307.235V90.604H320.474Z" fill="#083991"/>
<path d="M369.752 100.822C365.496 100.822 361.398 100.267 357.458 99.1585C353.57 97.9967 350.339 96.3862 347.764 94.3268L351.705 85.4555C357.116 89.2574 363.158 91.1584 369.831 91.1584C373.403 91.1584 376.135 90.604 378.027 89.4951C379.97 88.3333 380.942 86.7228 380.942 84.6634C380.942 82.868 380.049 81.4687 378.263 80.4654C376.529 79.4093 373.456 78.406 369.042 77.4555C364.104 76.4522 360.163 75.2376 357.221 73.8119C354.332 72.3333 352.204 70.5644 350.838 68.5049C349.524 66.3927 348.868 63.7789 348.868 60.6634C348.868 57.2838 349.787 54.2475 351.626 51.5544C353.517 48.8614 356.144 46.7756 359.507 45.297C362.869 43.7657 366.757 43 371.17 43C375.163 43 378.999 43.5809 382.676 44.7426C386.354 45.9043 389.296 47.4885 391.503 49.4951L387.562 58.3664C382.624 54.5644 377.186 52.6633 371.249 52.6633C368.097 52.6633 365.575 53.297 363.684 54.5644C361.792 55.8317 360.847 57.5478 360.847 59.7129C360.847 60.9802 361.188 62.0363 361.871 62.8812C362.607 63.7261 363.815 64.4918 365.496 65.1782C367.177 65.8119 369.568 66.4456 372.668 67.0792C379.865 68.6634 385.04 70.7228 388.193 73.2574C391.398 75.7921 393 79.2508 393 83.6337C393 88.9142 390.951 93.1122 386.853 96.2278C382.755 99.2905 377.055 100.822 369.752 100.822Z" fill="#083991"/>
</svg>
